<svg xmlns="http://www.w3.org/2000/svg" viewBox="0 0 600 600">
  <defs>
    <radialGradient id="midnightHalo" cx="50%" cy="45%" r="60%">
      <stop offset="0%" stop-color="#1f2148"/>
      <stop offset="55%" stop-color="#0d1230"/>
      <stop offset="100%" stop-color="#050714"/>
    </radialGradient>

    <radialGradient id="auroraGlow" cx="50%" cy="50%" r="50%">
      <stop offset="0%" stop-color="#2ddbdc" stop-opacity="0.85"/>
      <stop offset="50%" stop-color="#7f6bff" stop-opacity="0.3"/>
      <stop offset="100%" stop-color="#11163a" stop-opacity="0"/>
    </radialGradient>

    <linearGradient id="electricRing" x1="0%" y1="0%" x2="100%" y2="100%">
      <stop offset="0%" stop-color="#30e0ff"/>
      <stop offset="45%" stop-color="#8b69ff"/>
      <stop offset="100%" stop-color="#f5c46f"/>
    </linearGradient>

    <linearGradient id="innerRing" x1="0%" y1="0%" x2="0%" y2="100%">
      <stop offset="0%" stop-color="#fde7b4"/>
      <stop offset="55%" stop-color="#f7c769"/>
      <stop offset="100%" stop-color="#c98b37"/>
    </linearGradient>

    <radialGradient id="coinCore" cx="45%" cy="35%" r="70%">
      <stop offset="0%" stop-color="#fff3ce"/>
      <stop offset="45%" stop-color="#f4c764"/>
      <stop offset="100%" stop-color="#c07f2e"/>
    </radialGradient>

    <linearGradient id="monogramStroke" x1="0%" y1="0%" x2="100%" y2="100%">
      <stop offset="0%" stop-color="#fff9dc"/>
      <stop offset="45%" stop-color="#f3d588"/>
      <stop offset="100%" stop-color="#c88d39"/>
    </linearGradient>

    <radialGradient id="sparkle" cx="50%" cy="50%" r="50%">
      <stop offset="0%" stop-color="#ffffff" stop-opacity="0.9"/>
      <stop offset="70%" stop-color="#ffffff" stop-opacity="0"/>
      <stop offset="100%" stop-color="#ffffff" stop-opacity="0"/>
    </radialGradient>

    <filter id="softGlow" x="-40%" y="-40%" width="180%" height="180%">
      <feGaussianBlur stdDeviation="12" result="blur"/>
      <feMerge>
        <feMergeNode in="blur"/>
        <feMergeNode in="SourceGraphic"/>
      </feMerge>
    </filter>

    <filter id="deepShadow" x="-20%" y="-20%" width="140%" height="140%">
      <feOffset dy="10" result="offset"/>
      <feGaussianBlur in="offset" stdDeviation="12" result="blurred"/>
      <feColorMatrix in="blurred" type="matrix" values="0 0 0 0 0.07 0 0 0 0 0.09 0 0 0 0 0.2 0 0 0 0.32 0"/>
      <feComposite in2="SourceGraphic" operator="over"/>
    </filter>

    <path id="upperArc" d="M300 96a204 204 0 0 1 0 408"/>
    <path id="lowerArc" d="M300 504a204 204 0 0 1 0-408"/>
  </defs>

  <!-- Circular field -->
  <circle cx="300" cy="300" r="280" fill="url(#midnightHalo)"/>
  <circle cx="300" cy="300" r="262" fill="none" stroke="rgba(21,28,62,0.65)" stroke-width="8"/>

  <!-- Electric ring -->
  <circle cx="300" cy="300" r="240" fill="none" stroke="rgba(22,31,76,0.6)" stroke-width="16"/>
  <circle cx="300" cy="300" r="240" fill="none" stroke="url(#electricRing)" stroke-width="10" stroke-linecap="round" stroke-dasharray="420 40"/>

  <!-- Energy halo -->
  <circle cx="300" cy="300" r="220" fill="url(#auroraGlow)" opacity="0.8" filter="url(#softGlow)"/>

  <!-- Inner auric ring -->
  <circle cx="300" cy="300" r="176" fill="none" stroke="url(#innerRing)" stroke-width="20" opacity="0.92"/>
  <circle cx="300" cy="300" r="150" fill="rgba(10,15,38,0.86)"/>

  <!-- Energy arcs -->
  <path d="M150 240c40-70 110-110 150-110s116 32 150 110" fill="none" stroke="rgba(139,117,255,0.55)" stroke-width="8" stroke-linecap="round" stroke-dasharray="40 24"/>
  <path d="M450 360c-40 70-110 110-150 110s-116-32-150-110" fill="none" stroke="rgba(47,214,220,0.55)" stroke-width="8" stroke-linecap="round" stroke-dasharray="40 24"/>

  <!-- Core coin -->
  <g filter="url(#deepShadow)">
    <circle cx="300" cy="300" r="118" fill="url(#coinCore)"/>
    <circle cx="300" cy="300" r="110" fill="none" stroke="rgba(255,255,255,0.4)" stroke-width="6"/>
    <circle cx="270" cy="260" r="38" fill="url(#sparkle)" opacity="0.6"/>
  </g>

  <!-- Monogram -->
  <g stroke="url(#monogramStroke)" stroke-width="16" stroke-linecap="round" stroke-linejoin="round" fill="none">
    <path d="M238 226 L238 374 M238 226 L332 226 M238 298 L320 298 M238 374 L332 374"/>
    <path d="M352 374 L352 226 L410 305 L468 226 L468 374"/>
  </g>

  <!-- Title text -->
  <g fill="#f8e8c1" font-family="'Cinzel', 'Trajan Pro', 'Times New Roman', serif" letter-spacing="10">
    <text font-size="32">
      <textPath href="#upperArc" startOffset="50%" text-anchor="middle">ENERGY</textPath>
    </text>
    <text font-size="28">
      <textPath href="#lowerArc" startOffset="50%" text-anchor="middle">OF MONEY</textPath>
    </text>
  </g>
</svg>
